<svg width="60" height="60" viewBox="0 0 60 60" fill="none" xmlns="http://www.w3.org/2000/svg">
<path d="M55.9871 4.01255C56.466 4.49085 56.8459 5.05885 57.1051 5.68407C57.3642 6.3093 57.4977 6.97948 57.4977 7.6563C57.4977 8.33312 57.3642 9.0033 57.1051 9.62852C56.8459 10.2537 56.466 10.8217 55.9871 11.3L55.0746 12.2125L47.7871 4.92505L48.7496 4.01255C49.7135 3.06064 51.0136 2.52686 52.3684 2.52686C53.7231 2.52686 55.0232 3.06064 55.9871 4.01255Z" fill="white"/>
<path d="M47.7877 4.92529L35.1127 17.6127L30.1127 22.6127L28.6502 24.0627L26.8252 33.1752L35.9377 31.3502L44.9002 22.4002L49.9002 17.4002L55.0752 12.2127L47.7877 4.92529Z" fill="#ECE2D8"/>
<path d="M30 22.4999L30.1125 22.6124L28.65 24.0624L26.825 33.1749L35.9375 31.3499L44.9 22.3999L45 22.4999H52.5V52.4999H17.5V22.4999H30Z" fill="white"/>
<path d="M57.5 19.9999V54.9999C57.5 55.6629 57.2366 56.2988 56.7678 56.7677C56.2989 57.2365 55.663 57.4999 55 57.4999H5C4.33696 57.4999 3.70107 57.2365 3.23223 56.7677C2.76339 56.2988 2.5 55.6629 2.5 54.9999V19.9999C2.5 19.3369 2.76339 18.701 3.23223 18.2321C3.70107 17.7633 4.33696 17.4999 5 17.4999H35L35.1125 17.6124L30.1125 22.6124L30 22.4999H17.5V52.4999H52.5V22.4999H45L44.9 22.3999L49.9 17.3999L50 17.4999H55C55.663 17.4999 56.2989 17.7633 56.7678 18.2321C57.2366 18.701 57.5 19.3369 57.5 19.9999Z" fill="white"/>
<path d="M50 17.5H55C55.663 17.5 56.2989 17.7634 56.7678 18.2322C57.2366 18.7011 57.5 19.337 57.5 20V55C57.5 55.663 57.2366 56.2989 56.7678 56.7678C56.2989 57.2366 55.663 57.5 55 57.5H5C4.33696 57.5 3.70107 57.2366 3.23223 56.7678C2.76339 56.2989 2.5 55.663 2.5 55V20C2.5 19.337 2.76339 18.7011 3.23223 18.2322C3.70107 17.7634 4.33696 17.5 5 17.5H35" stroke="#004A63" stroke-width="2" stroke-linecap="round" stroke-linejoin="round"/>
<path d="M45 22.5H52.5V52.5H17.5V22.5H30" stroke="#004A63" stroke-width="2" stroke-linecap="round" stroke-linejoin="round"/>
<path d="M10 26.25C10.6904 26.25 11.25 25.6904 11.25 25C11.25 24.3096 10.6904 23.75 10 23.75C9.30964 23.75 8.75 24.3096 8.75 25C8.75 25.6904 9.30964 26.25 10 26.25Z" stroke="#004A63" stroke-width="2" stroke-linecap="round" stroke-linejoin="round"/>
<path d="M10 33.75C10.6904 33.75 11.25 33.1904 11.25 32.5C11.25 31.8096 10.6904 31.25 10 31.25C9.30964 31.25 8.75 31.8096 8.75 32.5C8.75 33.1904 9.30964 33.75 10 33.75Z" stroke="#004A63" stroke-width="2" stroke-linecap="round" stroke-linejoin="round"/>
<path d="M28.6502 24.0624L26.8252 33.1749L35.9377 31.3499L55.9377 11.3499C56.4166 10.8716 56.7965 10.3036 57.0556 9.67829C57.3148 9.05307 57.4483 8.38288 57.4483 7.70606C57.4483 7.02924 57.3148 6.35906 57.0556 5.73384C56.7965 5.10862 56.4166 4.54061 55.9377 4.06231C55.4594 3.58345 54.8914 3.20356 54.2662 2.94436C53.641 2.68517 52.9708 2.55176 52.2939 2.55176C51.6171 2.55176 50.9469 2.68517 50.3217 2.94436C49.6965 3.20356 49.1285 3.58345 48.6502 4.06231L28.6502 24.0624Z" stroke="#004A63" stroke-width="2" stroke-linecap="round" stroke-linejoin="round"/>
<path d="M25 34.9998L26.825 33.1748" stroke="#004A63" stroke-width="2" stroke-linecap="round" stroke-linejoin="round"/>
<path d="M47.7871 4.92529L55.0746 12.2127" stroke="#004A63" stroke-width="2" stroke-linecap="round" stroke-linejoin="round"/>
<path d="M25 35L29.6 39.6C29.9683 39.9673 30.409 40.2539 30.894 40.4417C31.3791 40.6295 31.8979 40.7144 32.4175 40.6909C32.9371 40.6674 33.4462 40.536 33.9123 40.3052C34.3784 40.0743 34.7914 39.7491 35.125 39.35L35.875 38.4625C36.227 38.0422 36.6668 37.7042 37.1635 37.4723C37.6603 37.2404 38.2018 37.1202 38.75 37.1202C39.2982 37.1202 39.8397 37.2404 40.3365 37.4723C40.8332 37.7042 41.273 38.0422 41.625 38.4625L45 42.5" stroke="#004A63" stroke-width="2" stroke-linecap="round" stroke-linejoin="round"/>
</svg>
