<svg width="60" height="60" viewBox="0 0 60 60" fill="none" xmlns="http://www.w3.org/2000/svg">
<path d="M39.25 6.6499L2.5 43.3999L16.6125 57.4999L53.35 20.7624" fill="#ECE2D8"/>
<path d="M2.5 14.9125L14.9125 2.5L57.5 45.0875L45.0875 57.5L2.5 14.9125ZM14.5125 14.9125C14.515 14.3725 14.3569 13.8439 14.0585 13.3939C13.76 12.9439 13.3345 12.5926 12.8361 12.3848C12.3377 12.1771 11.7887 12.122 11.259 12.2268C10.7292 12.3315 10.2425 12.5913 9.86066 12.9732C9.47881 13.355 9.21903 13.8417 9.11428 14.3715C9.00954 14.9012 9.06455 15.4502 9.27235 15.9486C9.48015 16.447 9.83135 16.8725 10.2814 17.171C10.7314 17.4694 11.26 17.6275 11.8 17.625C12.1615 17.6251 12.5194 17.5529 12.8527 17.4127C13.1859 17.2725 13.4878 17.0671 13.7405 16.8086C13.9932 16.55 14.1917 16.2436 14.3242 15.9072C14.4568 15.5709 14.5208 15.2114 14.5125 14.85V14.9125Z" fill="white"/>
<path d="M50.1625 4.1626L39.25 6.6501L53.35 20.7626L55.8375 9.8376L50.1625 4.1626Z" fill="white"/>
<path d="M50.1621 4.1625C50.4733 5.54884 51.1719 6.81825 52.1766 7.82294C53.1813 8.82764 54.4507 9.52627 55.8371 9.8375L57.4996 2.5L50.1621 4.1625Z" fill="#ECE2D8"/>
<path d="M2.5 14.9125L14.9125 2.5L57.5 45.0875L45.0875 57.5L2.5 14.9125ZM14.5125 14.9125C14.515 14.3725 14.3569 13.8439 14.0585 13.3939C13.76 12.9439 13.3345 12.5926 12.8361 12.3848C12.3377 12.1771 11.7887 12.122 11.259 12.2268C10.7292 12.3315 10.2425 12.5913 9.86066 12.9732C9.47881 13.355 9.21903 13.8417 9.11428 14.3715C9.00954 14.9012 9.06455 15.4502 9.27235 15.9486C9.48015 16.447 9.83135 16.8725 10.2814 17.171C10.7314 17.4694 11.26 17.6275 11.8 17.625C12.1615 17.6251 12.5194 17.5529 12.8527 17.4127C13.1859 17.2725 13.4878 17.0671 13.7405 16.8086C13.9932 16.55 14.1917 16.2436 14.3242 15.9072C14.4568 15.5709 14.5208 15.2114 14.5125 14.85V14.9125Z" stroke="#004A63" stroke-width="2" stroke-linecap="round" stroke-linejoin="round"/>
<path d="M27.7371 15.1627C27.643 15.0678 27.531 14.9925 27.4076 14.9411C27.2843 14.8897 27.152 14.8633 27.0183 14.8633C26.8847 14.8633 26.7524 14.8897 26.629 14.9411C26.5057 14.9925 26.3937 15.0678 26.2996 15.1627L24.6871 16.7877C24.5922 16.8818 24.5169 16.9937 24.4656 17.1171C24.4142 17.2405 24.3877 17.3728 24.3877 17.5064C24.3877 17.64 24.4142 17.7723 24.4656 17.8957C24.5169 18.0191 24.5922 18.131 24.6871 18.2252C24.7812 18.32 24.8932 18.3953 25.0165 18.4467C25.1399 18.4981 25.2722 18.5245 25.4058 18.5245C25.5395 18.5245 25.6718 18.4981 25.7951 18.4467C25.9185 18.3953 26.0305 18.32 26.1246 18.2252L27.7371 16.6002C27.832 16.506 27.9072 16.3941 27.9586 16.2707C28.01 16.1473 28.0365 16.015 28.0365 15.8814C28.0365 15.7478 28.01 15.6155 27.9586 15.4921C27.9072 15.3687 27.832 15.2568 27.7371 15.1627Z" fill="#004A63"/>
<path d="M19.2871 6.70033C19.1919 6.60508 19.0789 6.52953 18.9545 6.47798C18.8301 6.42643 18.6967 6.3999 18.5621 6.3999C18.4274 6.3999 18.2941 6.42643 18.1697 6.47798C18.0453 6.52953 17.9323 6.60508 17.8371 6.70033L16.2496 8.32533C16.1547 8.41945 16.0794 8.53142 16.0281 8.65478C15.9767 8.77814 15.9502 8.91045 15.9502 9.04408C15.9502 9.17771 15.9767 9.31002 16.0281 9.43338C16.0794 9.55674 16.1547 9.66871 16.2496 9.76283C16.3448 9.858 16.4579 9.93347 16.5823 9.98495C16.7066 10.0364 16.84 10.0628 16.9746 10.0628C17.1073 10.0626 17.2387 10.0359 17.361 9.98447C17.4833 9.93296 17.5942 9.85762 17.6871 9.76283L19.3121 8.13783C19.4053 8.04207 19.4787 7.9288 19.5279 7.80454C19.5772 7.68029 19.6014 7.54751 19.599 7.41387C19.5967 7.28023 19.5679 7.14838 19.5144 7.02591C19.4609 6.90344 19.3836 6.79279 19.2871 6.70033Z" fill="#004A63"/>
<path d="M36.2499 23.6251C36.1557 23.5302 36.0438 23.4549 35.9204 23.4035C35.7971 23.3521 35.6647 23.3257 35.5311 23.3257C35.3975 23.3257 35.2652 23.3521 35.1418 23.4035C35.0185 23.4549 34.9065 23.5302 34.8124 23.6251L33.1999 25.2376C33.1046 25.3327 33.0291 25.4458 32.9775 25.5702C32.926 25.6946 32.8994 25.8279 32.8994 25.9626C32.8994 26.0972 32.926 26.2305 32.9775 26.3549C33.0291 26.4793 33.1046 26.5924 33.1999 26.6876C33.293 26.7812 33.4041 26.855 33.5266 26.9044C33.6491 26.9539 33.7803 26.9779 33.9124 26.9751C34.0462 26.9774 34.1792 26.9533 34.3037 26.9039C34.4281 26.8546 34.5415 26.781 34.6374 26.6876L36.2499 25.0626C36.3447 24.9684 36.42 24.8565 36.4714 24.7331C36.5228 24.6097 36.5492 24.4774 36.5492 24.3438C36.5492 24.2102 36.5228 24.0779 36.4714 23.9545C36.42 23.8311 36.3447 23.7192 36.2499 23.6251Z" fill="#004A63"/>
<path d="M44.6629 32.0875C44.5688 31.9926 44.4568 31.9173 44.3335 31.8659C44.2101 31.8145 44.0778 31.7881 43.9442 31.7881C43.8105 31.7881 43.6782 31.8145 43.5549 31.8659C43.4315 31.9173 43.3195 31.9926 43.2254 32.0875L41.6129 33.75C41.5177 33.8451 41.4421 33.9582 41.3906 34.0826C41.339 34.207 41.3125 34.3403 41.3125 34.475C41.3125 34.6096 41.339 34.7429 41.3906 34.8673C41.4421 34.9917 41.5177 35.1048 41.6129 35.2C41.8061 35.3856 42.0637 35.4893 42.3317 35.4893C42.5996 35.4893 42.8572 35.3856 43.0504 35.2L44.6629 33.575C44.7655 33.4802 44.8474 33.3651 44.9035 33.2371C44.9595 33.1091 44.9884 32.9709 44.9884 32.8312C44.9884 32.6915 44.9595 32.5533 44.9035 32.4253C44.8474 32.2973 44.7655 32.1823 44.6629 32.0875Z" fill="#004A63"/>
<path d="M30.5373 19.4002L27.9498 21.9752C27.8549 22.0693 27.7796 22.1813 27.7283 22.3047C27.6769 22.428 27.6504 22.5603 27.6504 22.694C27.6504 22.8276 27.6769 22.9599 27.7283 23.0833C27.7796 23.2066 27.8549 23.3186 27.9498 23.4127C28.045 23.5079 28.1581 23.5834 28.2825 23.6348C28.4069 23.6863 28.5402 23.7128 28.6748 23.7127C28.8075 23.7125 28.9389 23.6859 29.0612 23.6343C29.1835 23.5828 29.2944 23.5075 29.3873 23.4127L31.9748 20.8377C32.1654 20.6471 32.2725 20.3885 32.2725 20.119C32.2725 19.8494 32.1654 19.5908 31.9748 19.4002C31.7842 19.2096 31.5256 19.1025 31.2561 19.1025C30.9865 19.1025 30.7279 19.2096 30.5373 19.4002Z" fill="#004A63"/>
<path d="M22.0754 10.9374L19.4879 13.5124C19.393 13.6065 19.3177 13.7185 19.2663 13.8418C19.215 13.9652 19.1885 14.0975 19.1885 14.2311C19.1885 14.3647 19.215 14.4971 19.2663 14.6204C19.3177 14.7438 19.393 14.8557 19.4879 14.9499C19.5831 15.0451 19.6961 15.1207 19.8205 15.1722C19.9449 15.2238 20.0782 15.2503 20.2129 15.2503C20.3475 15.2503 20.4809 15.2238 20.6053 15.1722C20.7297 15.1207 20.8427 15.0451 20.9379 14.9499L23.5129 12.3749C23.6073 12.2805 23.6821 12.1684 23.7332 12.0451C23.7843 11.9218 23.8106 11.7896 23.8106 11.6561C23.8106 11.5226 23.7843 11.3905 23.7332 11.2671C23.6821 11.1438 23.6073 11.0318 23.5129 10.9374C23.4185 10.843 23.3064 10.7681 23.1831 10.717C23.0598 10.6659 22.9276 10.6396 22.7941 10.6396C22.6606 10.6396 22.5285 10.6659 22.4051 10.717C22.2818 10.7681 22.1698 10.843 22.0754 10.9374Z" fill="#004A63"/>
<path d="M38.9876 27.8624L36.4126 30.4374C36.3178 30.5316 36.2425 30.6435 36.1911 30.7669C36.1397 30.8902 36.1133 31.0226 36.1133 31.1562C36.1133 31.2898 36.1397 31.4221 36.1911 31.5455C36.2425 31.6688 36.3178 31.7808 36.4126 31.8749C36.5079 31.9701 36.6209 32.0456 36.7453 32.0971C36.8697 32.1485 37.003 32.175 37.1376 32.1749C37.2704 32.1747 37.4017 32.1481 37.524 32.0966C37.6464 32.0451 37.7572 31.9697 37.8501 31.8749L40.4376 29.2999C40.5325 29.2058 40.6078 29.0939 40.6592 28.9705C40.7106 28.8471 40.737 28.7148 40.737 28.5812C40.737 28.4476 40.7106 28.3152 40.6592 28.1919C40.6078 28.0685 40.5325 27.9566 40.4376 27.8624C40.3424 27.7672 40.2294 27.6916 40.105 27.6401C39.9806 27.5885 39.8473 27.562 39.7126 27.562C39.578 27.562 39.4446 27.5885 39.3202 27.6401C39.1958 27.6916 39.0828 27.7672 38.9876 27.8624Z" fill="#004A63"/>
<path d="M47.5003 36.3251L44.8753 38.9001C44.7368 39.0433 44.6429 39.2237 44.6053 39.4194C44.5677 39.615 44.588 39.8174 44.6635 40.0018C44.7391 40.1861 44.8668 40.3444 45.031 40.4573C45.1951 40.5703 45.3886 40.6329 45.5878 40.6376C45.7224 40.6376 45.8558 40.6112 45.9802 40.5597C46.1046 40.5082 46.2176 40.4328 46.3128 40.3376L48.9003 37.7626C48.9952 37.6685 49.0705 37.5565 49.1219 37.4331C49.1732 37.3098 49.1997 37.1775 49.1997 37.0438C49.1997 36.9102 49.1732 36.7779 49.1219 36.6545C49.0705 36.5312 48.9952 36.4192 48.9003 36.3251C48.7105 36.1476 48.4602 36.0488 48.2003 36.0488C47.9404 36.0488 47.6902 36.1476 47.5003 36.3251Z" fill="#004A63"/>
<path d="M53.1251 40.5499C53.031 40.455 52.919 40.3797 52.7956 40.3284C52.6723 40.277 52.54 40.2505 52.4063 40.2505C52.2727 40.2505 52.1404 40.277 52.017 40.3284C51.8937 40.3797 51.7817 40.455 51.6876 40.5499L50.0626 42.1624C49.9234 42.3064 49.8294 42.4879 49.7922 42.6847C49.755 42.8815 49.7763 43.0849 49.8534 43.2697C49.9306 43.4545 50.0601 43.6127 50.2261 43.7247C50.3922 43.8367 50.5873 43.8976 50.7876 43.8999C50.9222 43.9 51.0555 43.8735 51.1799 43.822C51.3043 43.7705 51.4174 43.6951 51.5126 43.5999L53.1251 41.9874C53.22 41.8933 53.2952 41.7813 53.3466 41.658C53.398 41.5346 53.4245 41.4023 53.4245 41.2687C53.4245 41.135 53.398 41.0027 53.3466 40.8794C53.2952 40.756 53.22 40.644 53.1251 40.5499Z" fill="#004A63"/>
<path d="M43.2627 30.85L53.3502 20.75" stroke="#004A63" stroke-width="2" stroke-linecap="round" stroke-linejoin="round"/>
<path d="M16.7375 29.1499L2.5 43.3999L16.6125 57.4999L30.85 43.2624" stroke="#004A63" stroke-width="2" stroke-linecap="round" stroke-linejoin="round"/>
<path d="M39.2502 6.6499L29.2002 16.6999" stroke="#004A63" stroke-width="2" stroke-linecap="round" stroke-linejoin="round"/>
<path d="M50.1625 4.1626L39.25 6.6501L53.35 20.7626L55.8375 9.8376" stroke="#004A63" stroke-width="2" stroke-linecap="round" stroke-linejoin="round"/>
<path d="M50.1621 4.1625C50.4733 5.54884 51.1719 6.81825 52.1766 7.82294C53.1813 8.82764 54.4507 9.52627 55.8371 9.8375L57.4996 2.5L50.1621 4.1625Z" stroke="#004A63" stroke-width="2" stroke-linecap="round" stroke-linejoin="round"/>
</svg>
